<svg width="48" height="48" viewBox="0 0 48 48" fill="none" xmlns="http://www.w3.org/2000/svg">
<g clip-path="url(#clip0_6_45)">
<path d="M2.66667 18.6667V29.3333H45.3333V18.6667H2.66667ZM10.6667 25.3333H8.00001V22.6667H10.6667V25.3333ZM32 25.3333H13.3333V22.6667H32V25.3333Z" fill="black"/>
<path d="M2.66667 40C2.66667 40.7072 2.94762 41.3855 3.44772 41.8856C3.94782 42.3857 4.62609 42.6667 5.33334 42.6667H42.6667C43.3739 42.6667 44.0522 42.3857 44.5523 41.8856C45.0524 41.3855 45.3333 40.7072 45.3333 40V32H2.66667V40ZM13.3333 36H32V38.6667H13.3333V36ZM8.00001 36H10.6667V38.6667H8.00001V36Z" fill="black"/>
<path d="M30.84 12H13.3333V9.33334H30.0933C30.0326 8.89146 30.0014 8.44603 30 8C30.0035 7.09834 30.1291 6.2013 30.3733 5.33334H5.33334C4.62609 5.33334 3.94782 5.61429 3.44772 6.11438C2.94762 6.61448 2.66667 7.29276 2.66667 8V16H34.0133C32.6281 14.9628 31.5349 13.5848 30.84 12ZM10.6667 12H8V9.33334H10.6667V12Z" fill="black"/>
<path d="M40 14.6667C43.6819 14.6667 46.6667 11.6819 46.6667 8C46.6667 4.3181 43.6819 1.33334 40 1.33334C36.3181 1.33334 33.3333 4.3181 33.3333 8C33.3333 11.6819 36.3181 14.6667 40 14.6667Z" fill="black"/>
</g>
<defs>
<clipPath id="clip0_6_45">
<rect width="48" height="48" fill="white"/>
</clipPath>
</defs>
</svg>
