<svg width="48" height="48" viewBox="0 0 48 48" fill="none" xmlns="http://www.w3.org/2000/svg">
<path d="M37.36 24.64C36.5244 23.8044 35.5322 23.1419 34.4401 22.6905C33.348 22.2391 32.1775 22.0078 30.9958 22.0096C29.8142 22.0115 28.6444 22.2465 27.5538 22.7014C26.4631 23.1562 25.4729 23.8218 24.64 24.66C23.8031 25.4942 23.139 26.4855 22.6859 27.5768C22.2329 28.6682 21.9996 29.8383 21.9996 31.02C21.9996 32.2017 22.2329 33.3718 22.6859 34.4632C23.139 35.5545 23.8031 36.5458 24.64 37.38C26.082 38.8167 27.9677 39.7232 29.9903 39.952C32.013 40.1808 34.0536 39.7184 35.78 38.64L42 44.78L44.78 42L38.6 35.78C40.86 32.24 40.34 27.6 37.36 24.64ZM34.54 34.54C32.58 36.5 29.42 36.48 27.46 34.54C25.52 32.58 25.52 29.42 27.48 27.46C29.42 25.52 32.58 25.52 34.54 27.46C36.48 29.42 36.48 32.58 34.54 34.54ZM21.8 40.2C20.4948 38.8813 19.4857 37.2995 18.84 35.56C12.54 34.5 8 31.52 8 28V34C8 38.42 15.16 42 24 42C23.2 41.48 22.46 40.88 21.8 40.2ZM8 18V24C8 27.36 12.14 30.24 18 31.4V31C18 29.14 18.4 27.3 19.16 25.62C12.68 24.6 8 21.58 8 18ZM24 6C15.16 6 8 9.58 8 14C8 18 14 21.36 21.7 22H21.8C24.2 19.48 27.52 18 31 18C32.82 18 34.62 18.38 36.28 19.12C37.2889 18.6598 38.1617 17.9465 38.8135 17.0494C39.4653 16.1522 39.8741 15.1018 40 14C40 9.58 32.84 6 24 6Z" fill="black"/>
</svg>
