<svg width="48" height="48" viewBox="0 0 48 48" fill="none" xmlns="http://www.w3.org/2000/svg">
<path d="M22 6H9C8.20435 6 7.44129 6.31607 6.87868 6.87868C6.31607 7.44129 6 8.20435 6 9V31C6 31.7956 6.31607 32.5587 6.87868 33.1213C7.44129 33.6839 8.20435 34 9 34H39C39.7956 34 40.5587 33.6839 41.1213 33.1213C41.6839 32.5587 42 31.7956 42 31V22M24 34V42M14 42H34M33.3 6C31.478 6 30 7.435 30 9.205C30 12.409 33.9 15.322 36 16C38.1 15.322 42 12.41 42 9.205C42 7.435 40.523 6 38.7 6C38.1743 5.99751 37.6556 6.11964 37.1863 6.35639C36.7169 6.59315 36.3104 6.93777 36 7.362C35.6896 6.93777 35.2831 6.59315 34.8137 6.35639C34.3444 6.11964 33.8257 5.99751 33.3 6Z" stroke="black" stroke-width="4" stroke-linecap="round" stroke-linejoin="round"/>
</svg>
