<svg width="48" height="48" viewBox="0 0 48 48" fill="none" xmlns="http://www.w3.org/2000/svg">
<path d="M20.7 34L32 22.7L29.1 19.8L20.65 28.25L16.45 24.05L13.6 26.9L20.7 34ZM13 40C9.96667 40 7.37533 38.95 5.226 36.85C3.07533 34.75 2 32.1833 2 29.15C2 26.55 2.78333 24.2333 4.35 22.2C5.91667 20.1667 7.96667 18.8667 10.5 18.3C11.3333 15.2333 13 12.75 15.5 10.85C18 8.95 20.8333 8 24 8C27.9 8 31.208 9.358 33.924 12.074C36.6413 14.7913 38 18.1 38 22C40.3 22.2667 42.2087 23.258 43.726 24.974C45.242 26.6913 46 28.7 46 31C46 33.5 45.1253 35.6253 43.376 37.376C41.6253 39.1253 39.5 40 37 40H13Z" fill="black"/>
</svg>
